<svg xmlns="http://www.w3.org/2000/svg" width="760" height="280" viewBox="0 0 760 280" role="img">
  <title>FigureLoom GitHub Star trend</title>
  <desc>Anonymous daily aggregate Star totals for yuxian-cell/figureloom; no account-level data.</desc>
  <defs>
    <linearGradient id="trendFill" x1="0" y1="0" x2="0" y2="1">
      <stop offset="0%" stop-color="#2563eb" stop-opacity="0.24"/>
      <stop offset="100%" stop-color="#14b8a6" stop-opacity="0.02"/>
    </linearGradient>
  </defs>
  <rect width="760" height="280" rx="18" fill="#ffffff"/>
  <rect x="18" y="20" width="724" height="244" rx="15" fill="#cbd5e1" opacity="0.18"/>
  <rect x="16" y="16" width="728" height="248" rx="15" fill="#f8fafc" stroke="#e2e8f0"/>
  <text x="42" y="48" fill="#0f172a" font-family="Inter, Segoe UI, Arial, sans-serif" font-size="19" font-weight="700">GitHub Star Trend</text>
  <text x="42" y="68" fill="#64748b" font-family="Inter, Segoe UI, Arial, sans-serif" font-size="11.5">Daily aggregate only · no account data</text>
  <rect x="622" y="34" width="94" height="38" rx="11" fill="#eff6ff" stroke="#bfdbfe"/>
  <text x="669" y="59" text-anchor="middle" fill="#1d4ed8" font-family="Inter, Segoe UI, Arial, sans-serif" font-size="21" font-weight="750">0</text>
  <line x1="86.0" y1="220.0" x2="726.0" y2="220.0" stroke="#dbe4ee" stroke-width="1" stroke-dasharray="3 5"/>
  <text x="72" y="224.0" text-anchor="end" fill="#64748b" font-family="Inter, Segoe UI, Arial, sans-serif" font-size="11">0</text>
  <line x1="86.0" y1="151.0" x2="726.0" y2="151.0" stroke="#dbe4ee" stroke-width="1" stroke-dasharray="3 5"/>
  <text x="72" y="155.0" text-anchor="end" fill="#64748b" font-family="Inter, Segoe UI, Arial, sans-serif" font-size="11">1</text>
  <line x1="86.0" y1="82.0" x2="726.0" y2="82.0" stroke="#dbe4ee" stroke-width="1" stroke-dasharray="3 5"/>
  <text x="72" y="86.0" text-anchor="end" fill="#64748b" font-family="Inter, Segoe UI, Arial, sans-serif" font-size="11">2</text>
  <line x1="86.0" y1="220.0" x2="726.0" y2="220.0" stroke="#94a3b8" stroke-width="1.2"/>
  <text x="86.0" y="246" text-anchor="middle" fill="#64748b" font-family="Inter, Segoe UI, Arial, sans-serif" font-size="11">2026-09-28</text>
  <path data-role="trend-area" d="M 86.0,220.0 L 86.0,220.0 L 192.7,220.0 L 299.3,220.0 L 406.0,220.0 L 512.7,220.0 L 619.3,220.0 L 726.0,220.0 L 726.0,220.0 Z" fill="url(#trendFill)"/>
  <polyline data-role="trend-line" points="86.0,220.0 192.7,220.0 299.3,220.0 406.0,220.0 512.7,220.0 619.3,220.0 726.0,220.0" fill="none" stroke="#2563eb" stroke-width="3.2" stroke-linejoin="round" stroke-linecap="round"/>
  <text x="726.0" y="246" text-anchor="end" fill="#64748b" font-family="Inter, Segoe UI, Arial, sans-serif" font-size="11">2026-10-04</text>
  <circle data-role="series-point" data-date="2026-09-28" data-stars="0" cx="86.0" cy="220.0" r="4.7" fill="#ffffff" stroke="#2563eb" stroke-width="3"/>
  <circle data-role="series-point" data-date="2026-09-29" data-stars="0" cx="192.7" cy="220.0" r="4.7" fill="#ffffff" stroke="#2563eb" stroke-width="3"/>
  <circle data-role="series-point" data-date="2026-09-30" data-stars="0" cx="299.3" cy="220.0" r="4.7" fill="#ffffff" stroke="#2563eb" stroke-width="3"/>
  <circle data-role="series-point" data-date="2026-10-01" data-stars="0" cx="406.0" cy="220.0" r="4.7" fill="#ffffff" stroke="#2563eb" stroke-width="3"/>
  <circle data-role="series-point" data-date="2026-10-02" data-stars="0" cx="512.7" cy="220.0" r="4.7" fill="#ffffff" stroke="#2563eb" stroke-width="3"/>
  <circle data-role="series-point" data-date="2026-10-03" data-stars="0" cx="619.3" cy="220.0" r="4.7" fill="#ffffff" stroke="#2563eb" stroke-width="3"/>
  <circle data-role="series-point" data-date="2026-10-04" data-stars="0" cx="726.0" cy="220.0" r="6.4" fill="#ffffff" stroke="#2563eb" stroke-width="3"/>
  <text x="724.0" y="208.0" text-anchor="end" fill="#0f172a" font-family="Inter, Segoe UI, Arial, sans-serif" font-size="13" font-weight="700">0</text>
  <text x="718" y="258" text-anchor="end" fill="#94a3b8" font-family="Inter, Segoe UI, Arial, sans-serif" font-size="9.5">yuxian-cell/figureloom</text>
</svg>
